<?xml version="1.0" encoding="utf-8" standalone="no"?>
<!DOCTYPE svg PUBLIC "-//W3C//DTD SVG 1.1//EN"
  "http://www.w3.org/Graphics/SVG/1.1/DTD/svg11.dtd">
<!-- Created with matplotlib (https://matplotlib.org/) -->
<svg height="317.99625pt" version="1.1" viewBox="0 0 600.504688 317.99625" width="600.504688pt" xmlns="http://www.w3.org/2000/svg" xmlns:xlink="http://www.w3.org/1999/xlink">
 <defs>
  <style type="text/css">
*{stroke-linecap:butt;stroke-linejoin:round;}
  </style>
 </defs>
 <g id="figure_1">
  <g id="patch_1">
   <path d="M 0 317.99625 
L 600.504688 317.99625 
L 600.504688 0 
L 0 0 
z
" style="fill:none;"/>
  </g>
  <g id="axes_1">
   <g id="patch_2">
    <path d="M 35.304688 131.038125 
L 174.804687 131.038125 
L 174.804687 22.318125 
L 35.304688 22.318125 
z
" style="fill:#ffffff;"/>
   </g>
   <g id="matplotlib.axis_1">
    <g id="xtick_1">
     <g id="line2d_1">
      <path clip-path="url(#pdd0363874a)" d="M 62.78196 131.038125 
L 62.78196 22.318125 
" style="fill:none;stroke:#b0b0b0;stroke-linecap:square;stroke-width:0.8;"/>
     </g>
     <g id="line2d_2">
      <defs>
       <path d="M 0 0 
L 0 3.5 
" id="m0f4f0fb197" style="stroke:#000000;stroke-width:0.8;"/>
      </defs>
      <g>
       <use style="stroke:#000000;stroke-width:0.8;" x="62.78196" xlink:href="#m0f4f0fb197" y="131.038125"/>
      </g>
     </g>
     <g id="text_1">
      <!-- −2 -->
      <defs>
       <path d="M 10.59375 35.5 
L 73.1875 35.5 
L 73.1875 27.203125 
L 10.59375 27.203125 
z
" id="DejaVuSans-8722"/>
       <path d="M 19.1875 8.296875 
L 53.609375 8.296875 
L 53.609375 0 
L 7.328125 0 
L 7.328125 8.296875 
Q 12.9375 14.109375 22.625 23.890625 
Q 32.328125 33.6875 34.8125 36.53125 
Q 39.546875 41.84375 41.421875 45.53125 
Q 43.3125 49.21875 43.3125 52.78125 
Q 43.3125 58.59375 39.234375 62.25 
Q 35.15625 65.921875 28.609375 65.921875 
Q 23.96875 65.921875 18.8125 64.3125 
Q 13.671875 62.703125 7.8125 59.421875 
L 7.8125 69.390625 
Q 13.765625 71.78125 18.9375 73 
Q 24.125 74.21875 28.421875 74.21875 
Q 39.75 74.21875 46.484375 68.546875 
Q 53.21875 62.890625 53.21875 53.421875 
Q 53.21875 48.921875 51.53125 44.890625 
Q 49.859375 40.875 45.40625 35.40625 
Q 44.1875 33.984375 37.640625 27.21875 
Q 31.109375 20.453125 19.1875 8.296875 
z
" id="DejaVuSans-50"/>
      </defs>
      <g transform="translate(55.410866 145.636562)scale(0.1 -0.1)">
       <use xlink:href="#DejaVuSans-8722"/>
       <use x="83.789062" xlink:href="#DejaVuSans-50"/>
      </g>
     </g>
    </g>
    <g id="xtick_2">
     <g id="line2d_3">
      <path clip-path="url(#pdd0363874a)" d="M 105.054687 131.038125 
L 105.054687 22.318125 
" style="fill:none;stroke:#b0b0b0;stroke-linecap:square;stroke-width:0.8;"/>
     </g>
     <g id="line2d_4">
      <g>
       <use style="stroke:#000000;stroke-width:0.8;" x="105.054687" xlink:href="#m0f4f0fb197" y="131.038125"/>
      </g>
     </g>
     <g id="text_2">
      <!-- 0 -->
      <defs>
       <path d="M 31.78125 66.40625 
Q 24.171875 66.40625 20.328125 58.90625 
Q 16.5 51.421875 16.5 36.375 
Q 16.5 21.390625 20.328125 13.890625 
Q 24.171875 6.390625 31.78125 6.390625 
Q 39.453125 6.390625 43.28125 13.890625 
Q 47.125 21.390625 47.125 36.375 
Q 47.125 51.421875 43.28125 58.90625 
Q 39.453125 66.40625 31.78125 66.40625 
z
M 31.78125 74.21875 
Q 44.046875 74.21875 50.515625 64.515625 
Q 56.984375 54.828125 56.984375 36.375 
Q 56.984375 17.96875 50.515625 8.265625 
Q 44.046875 -1.421875 31.78125 -1.421875 
Q 19.53125 -1.421875 13.0625 8.265625 
Q 6.59375 17.96875 6.59375 36.375 
Q 6.59375 54.828125 13.0625 64.515625 
Q 19.53125 74.21875 31.78125 74.21875 
z
" id="DejaVuSans-48"/>
      </defs>
      <g transform="translate(101.873437 145.636562)scale(0.1 -0.1)">
       <use xlink:href="#DejaVuSans-48"/>
      </g>
     </g>
    </g>
    <g id="xtick_3">
     <g id="line2d_5">
      <path clip-path="url(#pdd0363874a)" d="M 147.327415 131.038125 
L 147.327415 22.318125 
" style="fill:none;stroke:#b0b0b0;stroke-linecap:square;stroke-width:0.8;"/>
     </g>
     <g id="line2d_6">
      <g>
       <use style="stroke:#000000;stroke-width:0.8;" x="147.327415" xlink:href="#m0f4f0fb197" y="131.038125"/>
      </g>
     </g>
     <g id="text_3">
      <!-- 2 -->
      <g transform="translate(144.146165 145.636562)scale(0.1 -0.1)">
       <use xlink:href="#DejaVuSans-50"/>
      </g>
     </g>
    </g>
   </g>
   <g id="matplotlib.axis_2">
    <g id="ytick_1">
     <g id="line2d_7">
      <path clip-path="url(#pdd0363874a)" d="M 35.304688 131.038125 
L 174.804687 131.038125 
" style="fill:none;stroke:#b0b0b0;stroke-linecap:square;stroke-width:0.8;"/>
     </g>
     <g id="line2d_8">
      <defs>
       <path d="M 0 0 
L -3.5 0 
" id="m915c4ff09c" style="stroke:#000000;stroke-width:0.8;"/>
      </defs>
      <g>
       <use style="stroke:#000000;stroke-width:0.8;" x="35.304688" xlink:href="#m915c4ff09c" y="131.038125"/>
      </g>
     </g>
     <g id="text_4">
      <!-- −20 -->
      <g transform="translate(7.2 134.837344)scale(0.1 -0.1)">
       <use xlink:href="#DejaVuSans-8722"/>
       <use x="83.789062" xlink:href="#DejaVuSans-50"/>
       <use x="147.412109" xlink:href="#DejaVuSans-48"/>
      </g>
     </g>
    </g>
    <g id="ytick_2">
     <g id="line2d_9">
      <path clip-path="url(#pdd0363874a)" d="M 35.304688 103.858125 
L 174.804687 103.858125 
" style="fill:none;stroke:#b0b0b0;stroke-linecap:square;stroke-width:0.8;"/>
     </g>
     <g id="line2d_10">
      <g>
       <use style="stroke:#000000;stroke-width:0.8;" x="35.304688" xlink:href="#m915c4ff09c" y="103.858125"/>
      </g>
     </g>
     <g id="text_5">
      <!-- −10 -->
      <defs>
       <path d="M 12.40625 8.296875 
L 28.515625 8.296875 
L 28.515625 63.921875 
L 10.984375 60.40625 
L 10.984375 69.390625 
L 28.421875 72.90625 
L 38.28125 72.90625 
L 38.28125 8.296875 
L 54.390625 8.296875 
L 54.390625 0 
L 12.40625 0 
z
" id="DejaVuSans-49"/>
      </defs>
      <g transform="translate(7.2 107.657344)scale(0.1 -0.1)">
       <use xlink:href="#DejaVuSans-8722"/>
       <use x="83.789062" xlink:href="#DejaVuSans-49"/>
       <use x="147.412109" xlink:href="#DejaVuSans-48"/>
      </g>
     </g>
    </g>
    <g id="ytick_3">
     <g id="line2d_11">
      <path clip-path="url(#pdd0363874a)" d="M 35.304688 76.678125 
L 174.804687 76.678125 
" style="fill:none;stroke:#b0b0b0;stroke-linecap:square;stroke-width:0.8;"/>
     </g>
     <g id="line2d_12">
      <g>
       <use style="stroke:#000000;stroke-width:0.8;" x="35.304688" xlink:href="#m915c4ff09c" y="76.678125"/>
      </g>
     </g>
     <g id="text_6">
      <!-- 0 -->
      <g transform="translate(21.942187 80.477344)scale(0.1 -0.1)">
       <use xlink:href="#DejaVuSans-48"/>
      </g>
     </g>
    </g>
    <g id="ytick_4">
     <g id="line2d_13">
      <path clip-path="url(#pdd0363874a)" d="M 35.304688 49.498125 
L 174.804687 49.498125 
" style="fill:none;stroke:#b0b0b0;stroke-linecap:square;stroke-width:0.8;"/>
     </g>
     <g id="line2d_14">
      <g>
       <use style="stroke:#000000;stroke-width:0.8;" x="35.304688" xlink:href="#m915c4ff09c" y="49.498125"/>
      </g>
     </g>
     <g id="text_7">
      <!-- 10 -->
      <g transform="translate(15.579687 53.297344)scale(0.1 -0.1)">
       <use xlink:href="#DejaVuSans-49"/>
       <use x="63.623047" xlink:href="#DejaVuSans-48"/>
      </g>
     </g>
    </g>
    <g id="ytick_5">
     <g id="line2d_15">
      <path clip-path="url(#pdd0363874a)" d="M 35.304688 22.318125 
L 174.804687 22.318125 
" style="fill:none;stroke:#b0b0b0;stroke-linecap:square;stroke-width:0.8;"/>
     </g>
     <g id="line2d_16">
      <g>
       <use style="stroke:#000000;stroke-width:0.8;" x="35.304688" xlink:href="#m915c4ff09c" y="22.318125"/>
      </g>
     </g>
     <g id="text_8">
      <!-- 20 -->
      <g transform="translate(15.579687 26.117344)scale(0.1 -0.1)">
       <use xlink:href="#DejaVuSans-50"/>
       <use x="63.623047" xlink:href="#DejaVuSans-48"/>
      </g>
     </g>
    </g>
   </g>
   <g id="line2d_17">
    <path clip-path="url(#pdd0363874a)" d="M 41.645597 150.064125 
L 42.926588 145.705735 
L 44.20758 141.523417 
L 45.488572 137.51354 
L 46.769564 133.672476 
L 48.050555 129.996592 
L 49.331547 126.482259 
L 50.612539 123.125846 
L 51.89353 119.923723 
L 53.174522 116.87226 
L 54.455514 113.967826 
L 55.736506 111.206792 
L 57.017497 108.585525 
L 58.298489 106.100397 
L 59.579481 103.747777 
L 60.860473 101.524035 
L 62.141464 99.425539 
L 63.422456 97.448661 
L 64.703448 95.589769 
L 65.98444 93.845233 
L 67.265431 92.211423 
L 68.546423 90.684708 
L 69.827415 89.261458 
L 71.108407 87.938043 
L 72.389398 86.710833 
L 73.67039 85.576196 
L 74.951382 84.530503 
L 76.232373 83.570123 
L 77.513365 82.691427 
L 78.794357 81.890783 
L 80.075349 81.164561 
L 81.35634 80.509131 
L 82.637332 79.920862 
L 83.918324 79.396125 
L 85.199316 78.931289 
L 86.480307 78.522723 
L 87.761299 78.166797 
L 89.042291 77.859881 
L 90.323283 77.598344 
L 91.604274 77.378556 
L 92.885266 77.196887 
L 94.166258 77.049707 
L 95.447249 76.933384 
L 96.728241 76.844289 
L 98.009233 76.778792 
L 99.290225 76.733261 
L 100.571216 76.704067 
L 101.852208 76.687579 
L 103.1332 76.680167 
L 104.414192 76.678201 
L 105.695183 76.678049 
L 106.976175 76.676083 
L 108.257167 76.668671 
L 109.538159 76.652183 
L 110.81915 76.622989 
L 112.100142 76.577458 
L 113.381134 76.511961 
L 114.662126 76.422866 
L 115.943117 76.306543 
L 117.224109 76.159363 
L 118.505101 75.977694 
L 119.786092 75.757906 
L 121.067084 75.496369 
L 122.348076 75.189453 
L 123.629068 74.833527 
L 124.910059 74.424961 
L 126.191051 73.960125 
L 127.472043 73.435388 
L 128.753035 72.847119 
L 130.034026 72.191689 
L 131.315018 71.465467 
L 132.59601 70.664823 
L 133.877002 69.786127 
L 135.157993 68.825747 
L 136.438985 67.780054 
L 137.719977 66.645417 
L 139.000968 65.418207 
L 140.28196 64.094792 
L 141.562952 62.671542 
L 142.843944 61.144827 
L 144.124935 59.511017 
L 145.405927 57.766481 
L 146.686919 55.907589 
L 147.967911 53.930711 
L 149.248902 51.832215 
L 150.529894 49.608473 
L 151.810886 47.255853 
L 153.091878 44.770725 
L 154.372869 42.149458 
L 155.653861 39.388424 
L 156.934853 36.48399 
L 158.215845 33.432527 
L 159.496836 30.230404 
L 160.777828 26.873991 
L 162.05882 23.359658 
L 163.339811 19.683774 
L 164.620803 15.84271 
L 165.901795 11.832833 
L 167.182787 7.650515 
L 168.463778 3.292125 
" style="fill:none;stroke:#000000;stroke-linecap:square;stroke-width:1.5;"/>
   </g>
   <g id="patch_3">
    <path d="M 35.304688 131.038125 
L 35.304688 22.318125 
" style="fill:none;stroke:#000000;stroke-linecap:square;stroke-linejoin:miter;stroke-width:0.8;"/>
   </g>
   <g id="patch_4">
    <path d="M 174.804687 131.038125 
L 174.804687 22.318125 
" style="fill:none;stroke:#000000;stroke-linecap:square;stroke-linejoin:miter;stroke-width:0.8;"/>
   </g>
   <g id="patch_5">
    <path d="M 35.304688 131.038125 
L 174.804687 131.038125 
" style="fill:none;stroke:#000000;stroke-linecap:square;stroke-linejoin:miter;stroke-width:0.8;"/>
   </g>
   <g id="patch_6">
    <path d="M 35.304688 22.318125 
L 174.804687 22.318125 
" style="fill:none;stroke:#000000;stroke-linecap:square;stroke-linejoin:miter;stroke-width:0.8;"/>
   </g>
   <g id="text_9">
    <!-- 1 -->
    <g transform="translate(101.237187 16.318125)scale(0.12 -0.12)">
     <use xlink:href="#DejaVuSans-49"/>
    </g>
   </g>
  </g>
  <g id="axes_2">
   <g id="patch_7">
    <path d="M 244.554688 131.038125 
L 384.054688 131.038125 
L 384.054688 22.318125 
L 244.554688 22.318125 
z
" style="fill:#ffffff;"/>
   </g>
   <g id="matplotlib.axis_3">
    <g id="xtick_4">
     <g id="line2d_18">
      <path clip-path="url(#p34f36f9dba)" d="M 272.03196 131.038125 
L 272.03196 22.318125 
" style="fill:none;stroke:#b0b0b0;stroke-linecap:square;stroke-width:0.8;"/>
     </g>
     <g id="line2d_19">
      <g>
       <use style="stroke:#000000;stroke-width:0.8;" x="272.03196" xlink:href="#m0f4f0fb197" y="131.038125"/>
      </g>
     </g>
     <g id="text_10">
      <!-- −2 -->
      <g transform="translate(264.660866 145.636562)scale(0.1 -0.1)">
       <use xlink:href="#DejaVuSans-8722"/>
       <use x="83.789062" xlink:href="#DejaVuSans-50"/>
      </g>
     </g>
    </g>
    <g id="xtick_5">
     <g id="line2d_20">
      <path clip-path="url(#p34f36f9dba)" d="M 314.304688 131.038125 
L 314.304688 22.318125 
" style="fill:none;stroke:#b0b0b0;stroke-linecap:square;stroke-width:0.8;"/>
     </g>
     <g id="line2d_21">
      <g>
       <use style="stroke:#000000;stroke-width:0.8;" x="314.304688" xlink:href="#m0f4f0fb197" y="131.038125"/>
      </g>
     </g>
     <g id="text_11">
      <!-- 0 -->
      <g transform="translate(311.123438 145.636562)scale(0.1 -0.1)">
       <use xlink:href="#DejaVuSans-48"/>
      </g>
     </g>
    </g>
    <g id="xtick_6">
     <g id="line2d_22">
      <path clip-path="url(#p34f36f9dba)" d="M 356.577415 131.038125 
L 356.577415 22.318125 
" style="fill:none;stroke:#b0b0b0;stroke-linecap:square;stroke-width:0.8;"/>
     </g>
     <g id="line2d_23">
      <g>
       <use style="stroke:#000000;stroke-width:0.8;" x="356.577415" xlink:href="#m0f4f0fb197" y="131.038125"/>
      </g>
     </g>
     <g id="text_12">
      <!-- 2 -->
      <g transform="translate(353.396165 145.636562)scale(0.1 -0.1)">
       <use xlink:href="#DejaVuSans-50"/>
      </g>
     </g>
    </g>
   </g>
   <g id="matplotlib.axis_4">
    <g id="ytick_6">
     <g id="line2d_24">
      <path clip-path="url(#p34f36f9dba)" d="M 244.554688 131.038125 
L 384.054688 131.038125 
" style="fill:none;stroke:#b0b0b0;stroke-linecap:square;stroke-width:0.8;"/>
     </g>
     <g id="line2d_25">
      <g>
       <use style="stroke:#000000;stroke-width:0.8;" x="244.554688" xlink:href="#m915c4ff09c" y="131.038125"/>
      </g>
     </g>
     <g id="text_13">
      <!-- −20 -->
      <g transform="translate(216.45 134.837344)scale(0.1 -0.1)">
       <use xlink:href="#DejaVuSans-8722"/>
       <use x="83.789062" xlink:href="#DejaVuSans-50"/>
       <use x="147.412109" xlink:href="#DejaVuSans-48"/>
      </g>
     </g>
    </g>
    <g id="ytick_7">
     <g id="line2d_26">
      <path clip-path="url(#p34f36f9dba)" d="M 244.554688 103.858125 
L 384.054688 103.858125 
" style="fill:none;stroke:#b0b0b0;stroke-linecap:square;stroke-width:0.8;"/>
     </g>
     <g id="line2d_27">
      <g>
       <use style="stroke:#000000;stroke-width:0.8;" x="244.554688" xlink:href="#m915c4ff09c" y="103.858125"/>
      </g>
     </g>
     <g id="text_14">
      <!-- −10 -->
      <g transform="translate(216.45 107.657344)scale(0.1 -0.1)">
       <use xlink:href="#DejaVuSans-8722"/>
       <use x="83.789062" xlink:href="#DejaVuSans-49"/>
       <use x="147.412109" xlink:href="#DejaVuSans-48"/>
      </g>
     </g>
    </g>
    <g id="ytick_8">
     <g id="line2d_28">
      <path clip-path="url(#p34f36f9dba)" d="M 244.554688 76.678125 
L 384.054688 76.678125 
" style="fill:none;stroke:#b0b0b0;stroke-linecap:square;stroke-width:0.8;"/>
     </g>
     <g id="line2d_29">
      <g>
       <use style="stroke:#000000;stroke-width:0.8;" x="244.554688" xlink:href="#m915c4ff09c" y="76.678125"/>
      </g>
     </g>
     <g id="text_15">
      <!-- 0 -->
      <g transform="translate(231.192187 80.477344)scale(0.1 -0.1)">
       <use xlink:href="#DejaVuSans-48"/>
      </g>
     </g>
    </g>
    <g id="ytick_9">
     <g id="line2d_30">
      <path clip-path="url(#p34f36f9dba)" d="M 244.554688 49.498125 
L 384.054688 49.498125 
" style="fill:none;stroke:#b0b0b0;stroke-linecap:square;stroke-width:0.8;"/>
     </g>
     <g id="line2d_31">
      <g>
       <use style="stroke:#000000;stroke-width:0.8;" x="244.554688" xlink:href="#m915c4ff09c" y="49.498125"/>
      </g>
     </g>
     <g id="text_16">
      <!-- 10 -->
      <g transform="translate(224.829688 53.297344)scale(0.1 -0.1)">
       <use xlink:href="#DejaVuSans-49"/>
       <use x="63.623047" xlink:href="#DejaVuSans-48"/>
      </g>
     </g>
    </g>
    <g id="ytick_10">
     <g id="line2d_32">
      <path clip-path="url(#p34f36f9dba)" d="M 244.554688 22.318125 
L 384.054688 22.318125 
" style="fill:none;stroke:#b0b0b0;stroke-linecap:square;stroke-width:0.8;"/>
     </g>
     <g id="line2d_33">
      <g>
       <use style="stroke:#000000;stroke-width:0.8;" x="244.554688" xlink:href="#m915c4ff09c" y="22.318125"/>
      </g>
     </g>
     <g id="text_17">
      <!-- 20 -->
      <g transform="translate(224.829688 26.117344)scale(0.1 -0.1)">
       <use xlink:href="#DejaVuSans-50"/>
       <use x="63.623047" xlink:href="#DejaVuSans-48"/>
      </g>
     </g>
    </g>
   </g>
   <g id="line2d_34">
    <path clip-path="url(#p34f36f9dba)" d="M 250.895597 141.910125 
L 252.176588 137.716462 
L 253.45758 133.698871 
L 254.738572 129.853722 
L 256.019564 126.177385 
L 257.300555 122.666228 
L 258.581547 119.316622 
L 259.862539 116.124937 
L 261.14353 113.087541 
L 262.424522 110.200806 
L 263.705514 107.461099 
L 264.986506 104.864792 
L 266.267497 102.408253 
L 267.548489 100.087852 
L 268.829481 97.899959 
L 270.110473 95.840944 
L 271.391464 93.907176 
L 272.672456 92.095025 
L 273.953448 90.40086 
L 275.23444 88.821051 
L 276.515431 87.351968 
L 277.796423 85.989981 
L 279.077415 84.731458 
L 280.358407 83.572771 
L 281.639398 82.510287 
L 282.92039 81.540378 
L 284.201382 80.659412 
L 285.482373 79.86376 
L 286.763365 79.14979 
L 288.044357 78.513874 
L 289.325349 77.952379 
L 290.60634 77.461676 
L 291.887332 77.038135 
L 293.168324 76.678125 
L 294.449316 76.378016 
L 295.730307 76.134177 
L 297.011299 75.942978 
L 298.292291 75.80079 
L 299.573283 75.70398 
L 300.854274 75.64892 
L 302.135266 75.631978 
L 303.416258 75.649525 
L 304.697249 75.69793 
L 305.978241 75.773562 
L 307.259233 75.872792 
L 308.540225 75.991988 
L 309.821216 76.127521 
L 311.102208 76.275761 
L 312.3832 76.433076 
L 313.664192 76.595837 
L 314.945183 76.760413 
L 316.226175 76.923174 
L 317.507167 77.080489 
L 318.788159 77.228729 
L 320.06915 77.364262 
L 321.350142 77.483458 
L 322.631134 77.582688 
L 323.912126 77.65832 
L 325.193117 77.706725 
L 326.474109 77.724272 
L 327.755101 77.70733 
L 329.036092 77.65227 
L 330.317084 77.55546 
L 331.598076 77.413272 
L 332.879068 77.222073 
L 334.160059 76.978234 
L 335.441051 76.678125 
L 336.722043 76.318115 
L 338.003035 75.894574 
L 339.284026 75.403871 
L 340.565018 74.842376 
L 341.84601 74.20646 
L 343.127002 73.49249 
L 344.407993 72.696838 
L 345.688985 71.815872 
L 346.969977 70.845963 
L 348.250968 69.783479 
L 349.53196 68.624792 
L 350.812952 67.366269 
L 352.093944 66.004282 
L 353.374935 64.535199 
L 354.655927 62.95539 
L 355.936919 61.261225 
L 357.217911 59.449074 
L 358.498902 57.515306 
L 359.779894 55.456291 
L 361.060886 53.268398 
L 362.341878 50.947997 
L 363.622869 48.491458 
L 364.903861 45.895151 
L 366.184853 43.155444 
L 367.465845 40.268709 
L 368.746836 37.231313 
L 370.027828 34.039628 
L 371.30882 30.690022 
L 372.589811 27.178865 
L 373.870803 23.502528 
L 375.151795 19.657379 
L 376.432787 15.639788 
L 377.713778 11.446125 
" style="fill:none;stroke:#000000;stroke-linecap:square;stroke-width:1.5;"/>
   </g>
   <g id="patch_8">
    <path d="M 244.554688 131.038125 
L 244.554688 22.318125 
" style="fill:none;stroke:#000000;stroke-linecap:square;stroke-linejoin:miter;stroke-width:0.8;"/>
   </g>
   <g id="patch_9">
    <path d="M 384.054688 131.038125 
L 384.054688 22.318125 
" style="fill:none;stroke:#000000;stroke-linecap:square;stroke-linejoin:miter;stroke-width:0.8;"/>
   </g>
   <g id="patch_10">
    <path d="M 244.554688 131.038125 
L 384.054688 131.038125 
" style="fill:none;stroke:#000000;stroke-linecap:square;stroke-linejoin:miter;stroke-width:0.8;"/>
   </g>
   <g id="patch_11">
    <path d="M 244.554688 22.318125 
L 384.054688 22.318125 
" style="fill:none;stroke:#000000;stroke-linecap:square;stroke-linejoin:miter;stroke-width:0.8;"/>
   </g>
   <g id="text_18">
    <!-- 2 -->
    <g transform="translate(310.487188 16.318125)scale(0.12 -0.12)">
     <use xlink:href="#DejaVuSans-50"/>
    </g>
   </g>
  </g>
  <g id="axes_3">
   <g id="patch_12">
    <path d="M 453.804688 131.038125 
L 593.304688 131.038125 
L 593.304688 22.318125 
L 453.804688 22.318125 
z
" style="fill:#ffffff;"/>
   </g>
   <g id="matplotlib.axis_5">
    <g id="xtick_7">
     <g id="line2d_35">
      <path clip-path="url(#pb5e437d142)" d="M 481.28196 131.038125 
L 481.28196 22.318125 
" style="fill:none;stroke:#b0b0b0;stroke-linecap:square;stroke-width:0.8;"/>
     </g>
     <g id="line2d_36">
      <g>
       <use style="stroke:#000000;stroke-width:0.8;" x="481.28196" xlink:href="#m0f4f0fb197" y="131.038125"/>
      </g>
     </g>
     <g id="text_19">
      <!-- −2 -->
      <g transform="translate(473.910866 145.636562)scale(0.1 -0.1)">
       <use xlink:href="#DejaVuSans-8722"/>
       <use x="83.789062" xlink:href="#DejaVuSans-50"/>
      </g>
     </g>
    </g>
    <g id="xtick_8">
     <g id="line2d_37">
      <path clip-path="url(#pb5e437d142)" d="M 523.554688 131.038125 
L 523.554688 22.318125 
" style="fill:none;stroke:#b0b0b0;stroke-linecap:square;stroke-width:0.8;"/>
     </g>
     <g id="line2d_38">
      <g>
       <use style="stroke:#000000;stroke-width:0.8;" x="523.554688" xlink:href="#m0f4f0fb197" y="131.038125"/>
      </g>
     </g>
     <g id="text_20">
      <!-- 0 -->
      <g transform="translate(520.373438 145.636562)scale(0.1 -0.1)">
       <use xlink:href="#DejaVuSans-48"/>
      </g>
     </g>
    </g>
    <g id="xtick_9">
     <g id="line2d_39">
      <path clip-path="url(#pb5e437d142)" d="M 565.827415 131.038125 
L 565.827415 22.318125 
" style="fill:none;stroke:#b0b0b0;stroke-linecap:square;stroke-width:0.8;"/>
     </g>
     <g id="line2d_40">
      <g>
       <use style="stroke:#000000;stroke-width:0.8;" x="565.827415" xlink:href="#m0f4f0fb197" y="131.038125"/>
      </g>
     </g>
     <g id="text_21">
      <!-- 2 -->
      <g transform="translate(562.646165 145.636562)scale(0.1 -0.1)">
       <use xlink:href="#DejaVuSans-50"/>
      </g>
     </g>
    </g>
   </g>
   <g id="matplotlib.axis_6">
    <g id="ytick_11">
     <g id="line2d_41">
      <path clip-path="url(#pb5e437d142)" d="M 453.804688 131.038125 
L 593.304688 131.038125 
" style="fill:none;stroke:#b0b0b0;stroke-linecap:square;stroke-width:0.8;"/>
     </g>
     <g id="line2d_42">
      <g>
       <use style="stroke:#000000;stroke-width:0.8;" x="453.804688" xlink:href="#m915c4ff09c" y="131.038125"/>
      </g>
     </g>
     <g id="text_22">
      <!-- −20 -->
      <g transform="translate(425.7 134.837344)scale(0.1 -0.1)">
       <use xlink:href="#DejaVuSans-8722"/>
       <use x="83.789062" xlink:href="#DejaVuSans-50"/>
       <use x="147.412109" xlink:href="#DejaVuSans-48"/>
      </g>
     </g>
    </g>
    <g id="ytick_12">
     <g id="line2d_43">
      <path clip-path="url(#pb5e437d142)" d="M 453.804688 103.858125 
L 593.304688 103.858125 
" style="fill:none;stroke:#b0b0b0;stroke-linecap:square;stroke-width:0.8;"/>
     </g>
     <g id="line2d_44">
      <g>
       <use style="stroke:#000000;stroke-width:0.8;" x="453.804688" xlink:href="#m915c4ff09c" y="103.858125"/>
      </g>
     </g>
     <g id="text_23">
      <!-- −10 -->
      <g transform="translate(425.7 107.657344)scale(0.1 -0.1)">
       <use xlink:href="#DejaVuSans-8722"/>
       <use x="83.789062" xlink:href="#DejaVuSans-49"/>
       <use x="147.412109" xlink:href="#DejaVuSans-48"/>
      </g>
     </g>
    </g>
    <g id="ytick_13">
     <g id="line2d_45">
      <path clip-path="url(#pb5e437d142)" d="M 453.804688 76.678125 
L 593.304688 76.678125 
" style="fill:none;stroke:#b0b0b0;stroke-linecap:square;stroke-width:0.8;"/>
     </g>
     <g id="line2d_46">
      <g>
       <use style="stroke:#000000;stroke-width:0.8;" x="453.804688" xlink:href="#m915c4ff09c" y="76.678125"/>
      </g>
     </g>
     <g id="text_24">
      <!-- 0 -->
      <g transform="translate(440.442188 80.477344)scale(0.1 -0.1)">
       <use xlink:href="#DejaVuSans-48"/>
      </g>
     </g>
    </g>
    <g id="ytick_14">
     <g id="line2d_47">
      <path clip-path="url(#pb5e437d142)" d="M 453.804688 49.498125 
L 593.304688 49.498125 
" style="fill:none;stroke:#b0b0b0;stroke-linecap:square;stroke-width:0.8;"/>
     </g>
     <g id="line2d_48">
      <g>
       <use style="stroke:#000000;stroke-width:0.8;" x="453.804688" xlink:href="#m915c4ff09c" y="49.498125"/>
      </g>
     </g>
     <g id="text_25">
      <!-- 10 -->
      <g transform="translate(434.079688 53.297344)scale(0.1 -0.1)">
       <use xlink:href="#DejaVuSans-49"/>
       <use x="63.623047" xlink:href="#DejaVuSans-48"/>
      </g>
     </g>
    </g>
    <g id="ytick_15">
     <g id="line2d_49">
      <path clip-path="url(#pb5e437d142)" d="M 453.804688 22.318125 
L 593.304688 22.318125 
" style="fill:none;stroke:#b0b0b0;stroke-linecap:square;stroke-width:0.8;"/>
     </g>
     <g id="line2d_50">
      <g>
       <use style="stroke:#000000;stroke-width:0.8;" x="453.804688" xlink:href="#m915c4ff09c" y="22.318125"/>
      </g>
     </g>
     <g id="text_26">
      <!-- 20 -->
      <g transform="translate(434.079688 26.117344)scale(0.1 -0.1)">
       <use xlink:href="#DejaVuSans-50"/>
       <use x="63.623047" xlink:href="#DejaVuSans-48"/>
      </g>
     </g>
    </g>
   </g>
   <g id="line2d_51">
    <path clip-path="url(#pb5e437d142)" d="M 460.145597 117.448125 
L 461.426588 113.748644 
L 462.70758 110.225235 
L 463.988572 106.874268 
L 465.269564 103.692112 
L 466.550555 100.675137 
L 467.831547 97.819713 
L 469.112539 95.12221 
L 470.39353 92.578996 
L 471.674522 90.186442 
L 472.955514 87.940917 
L 474.236506 85.838792 
L 475.517497 83.876435 
L 476.798489 82.050216 
L 478.079481 80.356505 
L 479.360473 78.791671 
L 480.641464 77.352085 
L 481.922456 76.034115 
L 483.203448 74.834133 
L 484.48444 73.748506 
L 485.765431 72.773605 
L 487.046423 71.905799 
L 488.327415 71.141458 
L 489.608407 70.476952 
L 490.889398 69.908651 
L 492.17039 69.432923 
L 493.451382 69.04614 
L 494.732373 68.744669 
L 496.013365 68.524881 
L 497.294357 68.383146 
L 498.575349 68.315833 
L 499.85634 68.319313 
L 501.137332 68.389953 
L 502.418324 68.524125 
L 503.699316 68.718198 
L 504.980307 68.968541 
L 506.261299 69.271524 
L 507.542291 69.623517 
L 508.823283 70.020889 
L 510.104274 70.460011 
L 511.385266 70.937251 
L 512.666258 71.448979 
L 513.947249 71.991566 
L 515.228241 72.56138 
L 516.509233 73.154792 
L 517.790225 73.76817 
L 519.071216 74.397885 
L 520.352208 75.040306 
L 521.6332 75.691803 
L 522.914192 76.348746 
L 524.195183 77.007504 
L 525.476175 77.664447 
L 526.757167 78.315944 
L 528.038159 78.958365 
L 529.31915 79.58808 
L 530.600142 80.201458 
L 531.881134 80.79487 
L 533.162126 81.364684 
L 534.443117 81.907271 
L 535.724109 82.418999 
L 537.005101 82.896239 
L 538.286092 83.335361 
L 539.567084 83.732733 
L 540.848076 84.084726 
L 542.129068 84.387709 
L 543.410059 84.638052 
L 544.691051 84.832125 
L 545.972043 84.966297 
L 547.253035 85.036937 
L 548.534026 85.040417 
L 549.815018 84.973104 
L 551.09601 84.831369 
L 552.377002 84.611581 
L 553.657993 84.31011 
L 554.938985 83.923327 
L 556.219977 83.447599 
L 557.500968 82.879298 
L 558.78196 82.214792 
L 560.062952 81.450451 
L 561.343944 80.582645 
L 562.624935 79.607744 
L 563.905927 78.522117 
L 565.186919 77.322135 
L 566.467911 76.004165 
L 567.748902 74.564579 
L 569.029894 72.999745 
L 570.310886 71.306034 
L 571.591878 69.479815 
L 572.872869 67.517458 
L 574.153861 65.415333 
L 575.434853 63.169808 
L 576.715845 60.777254 
L 577.996836 58.23404 
L 579.277828 55.536537 
L 580.55882 52.681113 
L 581.839811 49.664138 
L 583.120803 46.481982 
L 584.401795 43.131015 
L 585.682787 39.607606 
L 586.963778 35.908125 
" style="fill:none;stroke:#000000;stroke-linecap:square;stroke-width:1.5;"/>
   </g>
   <g id="patch_13">
    <path d="M 453.804688 131.038125 
L 453.804688 22.318125 
" style="fill:none;stroke:#000000;stroke-linecap:square;stroke-linejoin:miter;stroke-width:0.8;"/>
   </g>
   <g id="patch_14">
    <path d="M 593.304688 131.038125 
L 593.304688 22.318125 
" style="fill:none;stroke:#000000;stroke-linecap:square;stroke-linejoin:miter;stroke-width:0.8;"/>
   </g>
   <g id="patch_15">
    <path d="M 453.804688 131.038125 
L 593.304688 131.038125 
" style="fill:none;stroke:#000000;stroke-linecap:square;stroke-linejoin:miter;stroke-width:0.8;"/>
   </g>
   <g id="patch_16">
    <path d="M 453.804688 22.318125 
L 593.304688 22.318125 
" style="fill:none;stroke:#000000;stroke-linecap:square;stroke-linejoin:miter;stroke-width:0.8;"/>
   </g>
   <g id="text_27">
    <!-- 3 -->
    <defs>
     <path d="M 40.578125 39.3125 
Q 47.65625 37.796875 51.625 33 
Q 55.609375 28.21875 55.609375 21.1875 
Q 55.609375 10.40625 48.1875 4.484375 
Q 40.765625 -1.421875 27.09375 -1.421875 
Q 22.515625 -1.421875 17.65625 -0.515625 
Q 12.796875 0.390625 7.625 2.203125 
L 7.625 11.71875 
Q 11.71875 9.328125 16.59375 8.109375 
Q 21.484375 6.890625 26.8125 6.890625 
Q 36.078125 6.890625 40.9375 10.546875 
Q 45.796875 14.203125 45.796875 21.1875 
Q 45.796875 27.640625 41.28125 31.265625 
Q 36.765625 34.90625 28.71875 34.90625 
L 20.21875 34.90625 
L 20.21875 43.015625 
L 29.109375 43.015625 
Q 36.375 43.015625 40.234375 45.921875 
Q 44.09375 48.828125 44.09375 54.296875 
Q 44.09375 59.90625 40.109375 62.90625 
Q 36.140625 65.921875 28.71875 65.921875 
Q 24.65625 65.921875 20.015625 65.03125 
Q 15.375 64.15625 9.8125 62.3125 
L 9.8125 71.09375 
Q 15.4375 72.65625 20.34375 73.4375 
Q 25.25 74.21875 29.59375 74.21875 
Q 40.828125 74.21875 47.359375 69.109375 
Q 53.90625 64.015625 53.90625 55.328125 
Q 53.90625 49.265625 50.4375 45.09375 
Q 46.96875 40.921875 40.578125 39.3125 
z
" id="DejaVuSans-51"/>
    </defs>
    <g transform="translate(519.737188 16.318125)scale(0.12 -0.12)">
     <use xlink:href="#DejaVuSans-51"/>
    </g>
   </g>
  </g>
  <g id="axes_4">
   <g id="patch_17">
    <path d="M 35.304688 294.118125 
L 174.804687 294.118125 
L 174.804687 185.398125 
L 35.304688 185.398125 
z
" style="fill:#ffffff;"/>
   </g>
   <g id="matplotlib.axis_7">
    <g id="xtick_10">
     <g id="line2d_52">
      <path clip-path="url(#pc0e6f42d20)" d="M 62.78196 294.118125 
L 62.78196 185.398125 
" style="fill:none;stroke:#b0b0b0;stroke-linecap:square;stroke-width:0.8;"/>
     </g>
     <g id="line2d_53">
      <g>
       <use style="stroke:#000000;stroke-width:0.8;" x="62.78196" xlink:href="#m0f4f0fb197" y="294.118125"/>
      </g>
     </g>
     <g id="text_28">
      <!-- −2 -->
      <g transform="translate(55.410866 308.716562)scale(0.1 -0.1)">
       <use xlink:href="#DejaVuSans-8722"/>
       <use x="83.789062" xlink:href="#DejaVuSans-50"/>
      </g>
     </g>
    </g>
    <g id="xtick_11">
     <g id="line2d_54">
      <path clip-path="url(#pc0e6f42d20)" d="M 105.054687 294.118125 
L 105.054687 185.398125 
" style="fill:none;stroke:#b0b0b0;stroke-linecap:square;stroke-width:0.8;"/>
     </g>
     <g id="line2d_55">
      <g>
       <use style="stroke:#000000;stroke-width:0.8;" x="105.054687" xlink:href="#m0f4f0fb197" y="294.118125"/>
      </g>
     </g>
     <g id="text_29">
      <!-- 0 -->
      <g transform="translate(101.873437 308.716562)scale(0.1 -0.1)">
       <use xlink:href="#DejaVuSans-48"/>
      </g>
     </g>
    </g>
    <g id="xtick_12">
     <g id="line2d_56">
      <path clip-path="url(#pc0e6f42d20)" d="M 147.327415 294.118125 
L 147.327415 185.398125 
" style="fill:none;stroke:#b0b0b0;stroke-linecap:square;stroke-width:0.8;"/>
     </g>
     <g id="line2d_57">
      <g>
       <use style="stroke:#000000;stroke-width:0.8;" x="147.327415" xlink:href="#m0f4f0fb197" y="294.118125"/>
      </g>
     </g>
     <g id="text_30">
      <!-- 2 -->
      <g transform="translate(144.146165 308.716562)scale(0.1 -0.1)">
       <use xlink:href="#DejaVuSans-50"/>
      </g>
     </g>
    </g>
   </g>
   <g id="matplotlib.axis_8">
    <g id="ytick_16">
     <g id="line2d_58">
      <path clip-path="url(#pc0e6f42d20)" d="M 35.304688 294.118125 
L 174.804687 294.118125 
" style="fill:none;stroke:#b0b0b0;stroke-linecap:square;stroke-width:0.8;"/>
     </g>
     <g id="line2d_59">
      <g>
       <use style="stroke:#000000;stroke-width:0.8;" x="35.304688" xlink:href="#m915c4ff09c" y="294.118125"/>
      </g>
     </g>
     <g id="text_31">
      <!-- −20 -->
      <g transform="translate(7.2 297.917344)scale(0.1 -0.1)">
       <use xlink:href="#DejaVuSans-8722"/>
       <use x="83.789062" xlink:href="#DejaVuSans-50"/>
       <use x="147.412109" xlink:href="#DejaVuSans-48"/>
      </g>
     </g>
    </g>
    <g id="ytick_17">
     <g id="line2d_60">
      <path clip-path="url(#pc0e6f42d20)" d="M 35.304688 266.938125 
L 174.804687 266.938125 
" style="fill:none;stroke:#b0b0b0;stroke-linecap:square;stroke-width:0.8;"/>
     </g>
     <g id="line2d_61">
      <g>
       <use style="stroke:#000000;stroke-width:0.8;" x="35.304688" xlink:href="#m915c4ff09c" y="266.938125"/>
      </g>
     </g>
     <g id="text_32">
      <!-- −10 -->
      <g transform="translate(7.2 270.737344)scale(0.1 -0.1)">
       <use xlink:href="#DejaVuSans-8722"/>
       <use x="83.789062" xlink:href="#DejaVuSans-49"/>
       <use x="147.412109" xlink:href="#DejaVuSans-48"/>
      </g>
     </g>
    </g>
    <g id="ytick_18">
     <g id="line2d_62">
      <path clip-path="url(#pc0e6f42d20)" d="M 35.304688 239.758125 
L 174.804687 239.758125 
" style="fill:none;stroke:#b0b0b0;stroke-linecap:square;stroke-width:0.8;"/>
     </g>
     <g id="line2d_63">
      <g>
       <use style="stroke:#000000;stroke-width:0.8;" x="35.304688" xlink:href="#m915c4ff09c" y="239.758125"/>
      </g>
     </g>
     <g id="text_33">
      <!-- 0 -->
      <g transform="translate(21.942187 243.557344)scale(0.1 -0.1)">
       <use xlink:href="#DejaVuSans-48"/>
      </g>
     </g>
    </g>
    <g id="ytick_19">
     <g id="line2d_64">
      <path clip-path="url(#pc0e6f42d20)" d="M 35.304688 212.578125 
L 174.804687 212.578125 
" style="fill:none;stroke:#b0b0b0;stroke-linecap:square;stroke-width:0.8;"/>
     </g>
     <g id="line2d_65">
      <g>
       <use style="stroke:#000000;stroke-width:0.8;" x="35.304688" xlink:href="#m915c4ff09c" y="212.578125"/>
      </g>
     </g>
     <g id="text_34">
      <!-- 10 -->
      <g transform="translate(15.579687 216.377344)scale(0.1 -0.1)">
       <use xlink:href="#DejaVuSans-49"/>
       <use x="63.623047" xlink:href="#DejaVuSans-48"/>
      </g>
     </g>
    </g>
    <g id="ytick_20">
     <g id="line2d_66">
      <path clip-path="url(#pc0e6f42d20)" d="M 35.304688 185.398125 
L 174.804687 185.398125 
" style="fill:none;stroke:#b0b0b0;stroke-linecap:square;stroke-width:0.8;"/>
     </g>
     <g id="line2d_67">
      <g>
       <use style="stroke:#000000;stroke-width:0.8;" x="35.304688" xlink:href="#m915c4ff09c" y="185.398125"/>
      </g>
     </g>
     <g id="text_35">
      <!-- 20 -->
      <g transform="translate(15.579687 189.197344)scale(0.1 -0.1)">
       <use xlink:href="#DejaVuSans-50"/>
       <use x="63.623047" xlink:href="#DejaVuSans-48"/>
      </g>
     </g>
    </g>
   </g>
   <g id="line2d_68">
    <path clip-path="url(#pc0e6f42d20)" d="M 41.645597 239.758125 
L 42.926588 236.88228 
L 44.20758 234.182508 
L 45.488572 231.655177 
L 46.769564 229.296657 
L 48.050555 227.103319 
L 49.331547 225.071531 
L 50.612539 223.197664 
L 51.89353 221.478087 
L 53.174522 219.909169 
L 54.455514 218.487281 
L 55.736506 217.208792 
L 57.017497 216.070071 
L 58.298489 215.067488 
L 59.579481 214.197414 
L 60.860473 213.456217 
L 62.141464 212.840267 
L 63.422456 212.345934 
L 64.703448 211.969587 
L 65.98444 211.707597 
L 67.265431 211.556332 
L 68.546423 211.512163 
L 69.827415 211.571458 
L 71.108407 211.730589 
L 72.389398 211.985924 
L 73.67039 212.333832 
L 74.951382 212.770685 
L 76.232373 213.292851 
L 77.513365 213.8967 
L 78.794357 214.578601 
L 80.075349 215.334924 
L 81.35634 216.16204 
L 82.637332 217.056317 
L 83.918324 218.014125 
L 85.199316 219.031834 
L 86.480307 220.105813 
L 87.761299 221.232433 
L 89.042291 222.408062 
L 90.323283 223.629071 
L 91.604274 224.891829 
L 92.885266 226.192706 
L 94.166258 227.52807 
L 95.447249 228.894293 
L 96.728241 230.287744 
L 98.009233 231.704792 
L 99.290225 233.141806 
L 100.571216 234.595158 
L 101.852208 236.061215 
L 103.1332 237.536349 
L 104.414192 239.016928 
L 105.695183 240.499322 
L 106.976175 241.979901 
L 108.257167 243.455035 
L 109.538159 244.921092 
L 110.81915 246.374444 
L 112.100142 247.811458 
L 113.381134 249.228506 
L 114.662126 250.621957 
L 115.943117 251.98818 
L 117.224109 253.323544 
L 118.505101 254.624421 
L 119.786092 255.887179 
L 121.067084 257.108188 
L 122.348076 258.283817 
L 123.629068 259.410437 
L 124.910059 260.484416 
L 126.191051 261.502125 
L 127.472043 262.459933 
L 128.753035 263.35421 
L 130.034026 264.181326 
L 131.315018 264.937649 
L 132.59601 265.61955 
L 133.877002 266.223399 
L 135.157993 266.745565 
L 136.438985 267.182418 
L 137.719977 267.530326 
L 139.000968 267.785661 
L 140.28196 267.944792 
L 141.562952 268.004087 
L 142.843944 267.959918 
L 144.124935 267.808653 
L 145.405927 267.546663 
L 146.686919 267.170316 
L 147.967911 266.675983 
L 149.248902 266.060033 
L 150.529894 265.318836 
L 151.810886 264.448762 
L 153.091878 263.446179 
L 154.372869 262.307458 
L 155.653861 261.028969 
L 156.934853 259.607081 
L 158.215845 258.038163 
L 159.496836 256.318586 
L 160.777828 254.444719 
L 162.05882 252.412931 
L 163.339811 250.219593 
L 164.620803 247.861073 
L 165.901795 245.333742 
L 167.182787 242.63397 
L 168.463778 239.758125 
" style="fill:none;stroke:#000000;stroke-linecap:square;stroke-width:1.5;"/>
   </g>
   <g id="patch_18">
    <path d="M 35.304688 294.118125 
L 35.304688 185.398125 
" style="fill:none;stroke:#000000;stroke-linecap:square;stroke-linejoin:miter;stroke-width:0.8;"/>
   </g>
   <g id="patch_19">
    <path d="M 174.804687 294.118125 
L 174.804687 185.398125 
" style="fill:none;stroke:#000000;stroke-linecap:square;stroke-linejoin:miter;stroke-width:0.8;"/>
   </g>
   <g id="patch_20">
    <path d="M 35.304688 294.118125 
L 174.804687 294.118125 
" style="fill:none;stroke:#000000;stroke-linecap:square;stroke-linejoin:miter;stroke-width:0.8;"/>
   </g>
   <g id="patch_21">
    <path d="M 35.304688 185.398125 
L 174.804687 185.398125 
" style="fill:none;stroke:#000000;stroke-linecap:square;stroke-linejoin:miter;stroke-width:0.8;"/>
   </g>
   <g id="text_36">
    <!-- 4 -->
    <defs>
     <path d="M 37.796875 64.3125 
L 12.890625 25.390625 
L 37.796875 25.390625 
z
M 35.203125 72.90625 
L 47.609375 72.90625 
L 47.609375 25.390625 
L 58.015625 25.390625 
L 58.015625 17.1875 
L 47.609375 17.1875 
L 47.609375 0 
L 37.796875 0 
L 37.796875 17.1875 
L 4.890625 17.1875 
L 4.890625 26.703125 
z
" id="DejaVuSans-52"/>
    </defs>
    <g transform="translate(101.237187 179.398125)scale(0.12 -0.12)">
     <use xlink:href="#DejaVuSans-52"/>
    </g>
   </g>
  </g>
  <g id="axes_5">
   <g id="patch_22">
    <path d="M 244.554688 294.118125 
L 384.054688 294.118125 
L 384.054688 185.398125 
L 244.554688 185.398125 
z
" style="fill:#ffffff;"/>
   </g>
   <g id="matplotlib.axis_9">
    <g id="xtick_13">
     <g id="line2d_69">
      <path clip-path="url(#p69fdd0eb3d)" d="M 272.03196 294.118125 
L 272.03196 185.398125 
" style="fill:none;stroke:#b0b0b0;stroke-linecap:square;stroke-width:0.8;"/>
     </g>
     <g id="line2d_70">
      <g>
       <use style="stroke:#000000;stroke-width:0.8;" x="272.03196" xlink:href="#m0f4f0fb197" y="294.118125"/>
      </g>
     </g>
     <g id="text_37">
      <!-- −2 -->
      <g transform="translate(264.660866 308.716562)scale(0.1 -0.1)">
       <use xlink:href="#DejaVuSans-8722"/>
       <use x="83.789062" xlink:href="#DejaVuSans-50"/>
      </g>
     </g>
    </g>
    <g id="xtick_14">
     <g id="line2d_71">
      <path clip-path="url(#p69fdd0eb3d)" d="M 314.304688 294.118125 
L 314.304688 185.398125 
" style="fill:none;stroke:#b0b0b0;stroke-linecap:square;stroke-width:0.8;"/>
     </g>
     <g id="line2d_72">
      <g>
       <use style="stroke:#000000;stroke-width:0.8;" x="314.304688" xlink:href="#m0f4f0fb197" y="294.118125"/>
      </g>
     </g>
     <g id="text_38">
      <!-- 0 -->
      <g transform="translate(311.123438 308.716562)scale(0.1 -0.1)">
       <use xlink:href="#DejaVuSans-48"/>
      </g>
     </g>
    </g>
    <g id="xtick_15">
     <g id="line2d_73">
      <path clip-path="url(#p69fdd0eb3d)" d="M 356.577415 294.118125 
L 356.577415 185.398125 
" style="fill:none;stroke:#b0b0b0;stroke-linecap:square;stroke-width:0.8;"/>
     </g>
     <g id="line2d_74">
      <g>
       <use style="stroke:#000000;stroke-width:0.8;" x="356.577415" xlink:href="#m0f4f0fb197" y="294.118125"/>
      </g>
     </g>
     <g id="text_39">
      <!-- 2 -->
      <g transform="translate(353.396165 308.716562)scale(0.1 -0.1)">
       <use xlink:href="#DejaVuSans-50"/>
      </g>
     </g>
    </g>
   </g>
   <g id="matplotlib.axis_10">
    <g id="ytick_21">
     <g id="line2d_75">
      <path clip-path="url(#p69fdd0eb3d)" d="M 244.554688 294.118125 
L 384.054688 294.118125 
" style="fill:none;stroke:#b0b0b0;stroke-linecap:square;stroke-width:0.8;"/>
     </g>
     <g id="line2d_76">
      <g>
       <use style="stroke:#000000;stroke-width:0.8;" x="244.554688" xlink:href="#m915c4ff09c" y="294.118125"/>
      </g>
     </g>
     <g id="text_40">
      <!-- −20 -->
      <g transform="translate(216.45 297.917344)scale(0.1 -0.1)">
       <use xlink:href="#DejaVuSans-8722"/>
       <use x="83.789062" xlink:href="#DejaVuSans-50"/>
       <use x="147.412109" xlink:href="#DejaVuSans-48"/>
      </g>
     </g>
    </g>
    <g id="ytick_22">
     <g id="line2d_77">
      <path clip-path="url(#p69fdd0eb3d)" d="M 244.554688 266.938125 
L 384.054688 266.938125 
" style="fill:none;stroke:#b0b0b0;stroke-linecap:square;stroke-width:0.8;"/>
     </g>
     <g id="line2d_78">
      <g>
       <use style="stroke:#000000;stroke-width:0.8;" x="244.554688" xlink:href="#m915c4ff09c" y="266.938125"/>
      </g>
     </g>
     <g id="text_41">
      <!-- −10 -->
      <g transform="translate(216.45 270.737344)scale(0.1 -0.1)">
       <use xlink:href="#DejaVuSans-8722"/>
       <use x="83.789062" xlink:href="#DejaVuSans-49"/>
       <use x="147.412109" xlink:href="#DejaVuSans-48"/>
      </g>
     </g>
    </g>
    <g id="ytick_23">
     <g id="line2d_79">
      <path clip-path="url(#p69fdd0eb3d)" d="M 244.554688 239.758125 
L 384.054688 239.758125 
" style="fill:none;stroke:#b0b0b0;stroke-linecap:square;stroke-width:0.8;"/>
     </g>
     <g id="line2d_80">
      <g>
       <use style="stroke:#000000;stroke-width:0.8;" x="244.554688" xlink:href="#m915c4ff09c" y="239.758125"/>
      </g>
     </g>
     <g id="text_42">
      <!-- 0 -->
      <g transform="translate(231.192187 243.557344)scale(0.1 -0.1)">
       <use xlink:href="#DejaVuSans-48"/>
      </g>
     </g>
    </g>
    <g id="ytick_24">
     <g id="line2d_81">
      <path clip-path="url(#p69fdd0eb3d)" d="M 244.554688 212.578125 
L 384.054688 212.578125 
" style="fill:none;stroke:#b0b0b0;stroke-linecap:square;stroke-width:0.8;"/>
     </g>
     <g id="line2d_82">
      <g>
       <use style="stroke:#000000;stroke-width:0.8;" x="244.554688" xlink:href="#m915c4ff09c" y="212.578125"/>
      </g>
     </g>
     <g id="text_43">
      <!-- 10 -->
      <g transform="translate(224.829688 216.377344)scale(0.1 -0.1)">
       <use xlink:href="#DejaVuSans-49"/>
       <use x="63.623047" xlink:href="#DejaVuSans-48"/>
      </g>
     </g>
    </g>
    <g id="ytick_25">
     <g id="line2d_83">
      <path clip-path="url(#p69fdd0eb3d)" d="M 244.554688 185.398125 
L 384.054688 185.398125 
" style="fill:none;stroke:#b0b0b0;stroke-linecap:square;stroke-width:0.8;"/>
     </g>
     <g id="line2d_84">
      <g>
       <use style="stroke:#000000;stroke-width:0.8;" x="244.554688" xlink:href="#m915c4ff09c" y="185.398125"/>
      </g>
     </g>
     <g id="text_44">
      <!-- 20 -->
      <g transform="translate(224.829688 189.197344)scale(0.1 -0.1)">
       <use xlink:href="#DejaVuSans-50"/>
       <use x="63.623047" xlink:href="#DejaVuSans-48"/>
      </g>
     </g>
    </g>
   </g>
   <g id="line2d_85">
    <path clip-path="url(#p69fdd0eb3d)" d="M 250.895597 182.680125 
L 252.176588 180.957371 
L 253.45758 179.410689 
L 254.738572 178.03645 
L 256.019564 176.831021 
L 257.300555 175.790774 
L 258.581547 174.912077 
L 259.862539 174.191301 
L 261.14353 173.624814 
L 262.424522 173.208988 
L 263.705514 172.94019 
L 264.986506 172.814792 
L 266.267497 172.829162 
L 267.548489 172.97967 
L 268.829481 173.262686 
L 270.110473 173.67458 
L 271.391464 174.211721 
L 272.672456 174.870479 
L 273.953448 175.647223 
L 275.23444 176.538324 
L 276.515431 177.54015 
L 277.796423 178.649072 
L 279.077415 179.861458 
L 280.358407 181.17368 
L 281.639398 182.582105 
L 282.92039 184.083105 
L 284.201382 185.673049 
L 285.482373 187.348305 
L 286.763365 189.105245 
L 288.044357 190.940237 
L 289.325349 192.849652 
L 290.60634 194.829858 
L 291.887332 196.877226 
L 293.168324 198.988125 
L 294.449316 201.158925 
L 295.730307 203.385995 
L 297.011299 205.665706 
L 298.292291 207.994426 
L 299.573283 210.368526 
L 300.854274 212.784374 
L 302.135266 215.238342 
L 303.416258 217.726798 
L 304.697249 220.246111 
L 305.978241 222.792653 
L 307.259233 225.362792 
L 308.540225 227.952897 
L 309.821216 230.55934 
L 311.102208 233.178488 
L 312.3832 235.806713 
L 313.664192 238.440382 
L 314.945183 241.075868 
L 316.226175 243.709537 
L 317.507167 246.337762 
L 318.788159 248.95691 
L 320.06915 251.563353 
L 321.350142 254.153458 
L 322.631134 256.723597 
L 323.912126 259.270139 
L 325.193117 261.789452 
L 326.474109 264.277908 
L 327.755101 266.731876 
L 329.036092 269.147724 
L 330.317084 271.521824 
L 331.598076 273.850544 
L 332.879068 276.130255 
L 334.160059 278.357325 
L 335.441051 280.528125 
L 336.722043 282.639024 
L 338.003035 284.686392 
L 339.284026 286.666598 
L 340.565018 288.576013 
L 341.84601 290.411005 
L 343.127002 292.167945 
L 344.407993 293.843201 
L 345.688985 295.433145 
L 346.969977 296.934145 
L 348.250968 298.34257 
L 349.53196 299.654792 
L 350.812952 300.867178 
L 352.093944 301.9761 
L 353.374935 302.977926 
L 354.655927 303.869027 
L 355.936919 304.645771 
L 357.217911 305.304529 
L 358.498902 305.84167 
L 359.779894 306.253564 
L 361.060886 306.53658 
L 362.341878 306.687088 
L 363.622869 306.701458 
L 364.903861 306.57606 
L 366.184853 306.307262 
L 367.465845 305.891436 
L 368.746836 305.324949 
L 370.027828 304.604173 
L 371.30882 303.725476 
L 372.589811 302.685229 
L 373.870803 301.4798 
L 375.151795 300.105561 
L 376.432787 298.558879 
L 377.713778 296.836125 
" style="fill:none;stroke:#000000;stroke-linecap:square;stroke-width:1.5;"/>
   </g>
   <g id="patch_23">
    <path d="M 244.554688 294.118125 
L 244.554688 185.398125 
" style="fill:none;stroke:#000000;stroke-linecap:square;stroke-linejoin:miter;stroke-width:0.8;"/>
   </g>
   <g id="patch_24">
    <path d="M 384.054688 294.118125 
L 384.054688 185.398125 
" style="fill:none;stroke:#000000;stroke-linecap:square;stroke-linejoin:miter;stroke-width:0.8;"/>
   </g>
   <g id="patch_25">
    <path d="M 244.554688 294.118125 
L 384.054688 294.118125 
" style="fill:none;stroke:#000000;stroke-linecap:square;stroke-linejoin:miter;stroke-width:0.8;"/>
   </g>
   <g id="patch_26">
    <path d="M 244.554688 185.398125 
L 384.054688 185.398125 
" style="fill:none;stroke:#000000;stroke-linecap:square;stroke-linejoin:miter;stroke-width:0.8;"/>
   </g>
   <g id="text_45">
    <!-- 5 -->
    <defs>
     <path d="M 10.796875 72.90625 
L 49.515625 72.90625 
L 49.515625 64.59375 
L 19.828125 64.59375 
L 19.828125 46.734375 
Q 21.96875 47.46875 24.109375 47.828125 
Q 26.265625 48.1875 28.421875 48.1875 
Q 40.625 48.1875 47.75 41.5 
Q 54.890625 34.8125 54.890625 23.390625 
Q 54.890625 11.625 47.5625 5.09375 
Q 40.234375 -1.421875 26.90625 -1.421875 
Q 22.3125 -1.421875 17.546875 -0.640625 
Q 12.796875 0.140625 7.71875 1.703125 
L 7.71875 11.625 
Q 12.109375 9.234375 16.796875 8.0625 
Q 21.484375 6.890625 26.703125 6.890625 
Q 35.15625 6.890625 40.078125 11.328125 
Q 45.015625 15.765625 45.015625 23.390625 
Q 45.015625 31 40.078125 35.4375 
Q 35.15625 39.890625 26.703125 39.890625 
Q 22.75 39.890625 18.8125 39.015625 
Q 14.890625 38.140625 10.796875 36.28125 
z
" id="DejaVuSans-53"/>
    </defs>
    <g transform="translate(310.487188 179.398125)scale(0.12 -0.12)">
     <use xlink:href="#DejaVuSans-53"/>
    </g>
   </g>
  </g>
  <g id="axes_6">
   <g id="patch_27">
    <path d="M 453.804688 294.118125 
L 593.304688 294.118125 
L 593.304688 185.398125 
L 453.804688 185.398125 
z
" style="fill:#ffffff;"/>
   </g>
   <g id="matplotlib.axis_11">
    <g id="xtick_16">
     <g id="line2d_86">
      <path clip-path="url(#p63f3ad0530)" d="M 481.28196 294.118125 
L 481.28196 185.398125 
" style="fill:none;stroke:#b0b0b0;stroke-linecap:square;stroke-width:0.8;"/>
     </g>
     <g id="line2d_87">
      <g>
       <use style="stroke:#000000;stroke-width:0.8;" x="481.28196" xlink:href="#m0f4f0fb197" y="294.118125"/>
      </g>
     </g>
     <g id="text_46">
      <!-- −2 -->
      <g transform="translate(473.910866 308.716562)scale(0.1 -0.1)">
       <use xlink:href="#DejaVuSans-8722"/>
       <use x="83.789062" xlink:href="#DejaVuSans-50"/>
      </g>
     </g>
    </g>
    <g id="xtick_17">
     <g id="line2d_88">
      <path clip-path="url(#p63f3ad0530)" d="M 523.554688 294.118125 
L 523.554688 185.398125 
" style="fill:none;stroke:#b0b0b0;stroke-linecap:square;stroke-width:0.8;"/>
     </g>
     <g id="line2d_89">
      <g>
       <use style="stroke:#000000;stroke-width:0.8;" x="523.554688" xlink:href="#m0f4f0fb197" y="294.118125"/>
      </g>
     </g>
     <g id="text_47">
      <!-- 0 -->
      <g transform="translate(520.373438 308.716562)scale(0.1 -0.1)">
       <use xlink:href="#DejaVuSans-48"/>
      </g>
     </g>
    </g>
    <g id="xtick_18">
     <g id="line2d_90">
      <path clip-path="url(#p63f3ad0530)" d="M 565.827415 294.118125 
L 565.827415 185.398125 
" style="fill:none;stroke:#b0b0b0;stroke-linecap:square;stroke-width:0.8;"/>
     </g>
     <g id="line2d_91">
      <g>
       <use style="stroke:#000000;stroke-width:0.8;" x="565.827415" xlink:href="#m0f4f0fb197" y="294.118125"/>
      </g>
     </g>
     <g id="text_48">
      <!-- 2 -->
      <g transform="translate(562.646165 308.716562)scale(0.1 -0.1)">
       <use xlink:href="#DejaVuSans-50"/>
      </g>
     </g>
    </g>
   </g>
   <g id="matplotlib.axis_12">
    <g id="ytick_26">
     <g id="line2d_92">
      <path clip-path="url(#p63f3ad0530)" d="M 453.804688 294.118125 
L 593.304688 294.118125 
" style="fill:none;stroke:#b0b0b0;stroke-linecap:square;stroke-width:0.8;"/>
     </g>
     <g id="line2d_93">
      <g>
       <use style="stroke:#000000;stroke-width:0.8;" x="453.804688" xlink:href="#m915c4ff09c" y="294.118125"/>
      </g>
     </g>
     <g id="text_49">
      <!-- −20 -->
      <g transform="translate(425.7 297.917344)scale(0.1 -0.1)">
       <use xlink:href="#DejaVuSans-8722"/>
       <use x="83.789062" xlink:href="#DejaVuSans-50"/>
       <use x="147.412109" xlink:href="#DejaVuSans-48"/>
      </g>
     </g>
    </g>
    <g id="ytick_27">
     <g id="line2d_94">
      <path clip-path="url(#p63f3ad0530)" d="M 453.804688 266.938125 
L 593.304688 266.938125 
" style="fill:none;stroke:#b0b0b0;stroke-linecap:square;stroke-width:0.8;"/>
     </g>
     <g id="line2d_95">
      <g>
       <use style="stroke:#000000;stroke-width:0.8;" x="453.804688" xlink:href="#m915c4ff09c" y="266.938125"/>
      </g>
     </g>
     <g id="text_50">
      <!-- −10 -->
      <g transform="translate(425.7 270.737344)scale(0.1 -0.1)">
       <use xlink:href="#DejaVuSans-8722"/>
       <use x="83.789062" xlink:href="#DejaVuSans-49"/>
       <use x="147.412109" xlink:href="#DejaVuSans-48"/>
      </g>
     </g>
    </g>
    <g id="ytick_28">
     <g id="line2d_96">
      <path clip-path="url(#p63f3ad0530)" d="M 453.804688 239.758125 
L 593.304688 239.758125 
" style="fill:none;stroke:#b0b0b0;stroke-linecap:square;stroke-width:0.8;"/>
     </g>
     <g id="line2d_97">
      <g>
       <use style="stroke:#000000;stroke-width:0.8;" x="453.804688" xlink:href="#m915c4ff09c" y="239.758125"/>
      </g>
     </g>
     <g id="text_51">
      <!-- 0 -->
      <g transform="translate(440.442188 243.557344)scale(0.1 -0.1)">
       <use xlink:href="#DejaVuSans-48"/>
      </g>
     </g>
    </g>
    <g id="ytick_29">
     <g id="line2d_98">
      <path clip-path="url(#p63f3ad0530)" d="M 453.804688 212.578125 
L 593.304688 212.578125 
" style="fill:none;stroke:#b0b0b0;stroke-linecap:square;stroke-width:0.8;"/>
     </g>
     <g id="line2d_99">
      <g>
       <use style="stroke:#000000;stroke-width:0.8;" x="453.804688" xlink:href="#m915c4ff09c" y="212.578125"/>
      </g>
     </g>
     <g id="text_52">
      <!-- 10 -->
      <g transform="translate(434.079688 216.377344)scale(0.1 -0.1)">
       <use xlink:href="#DejaVuSans-49"/>
       <use x="63.623047" xlink:href="#DejaVuSans-48"/>
      </g>
     </g>
    </g>
    <g id="ytick_30">
     <g id="line2d_100">
      <path clip-path="url(#p63f3ad0530)" d="M 453.804688 185.398125 
L 593.304688 185.398125 
" style="fill:none;stroke:#b0b0b0;stroke-linecap:square;stroke-width:0.8;"/>
     </g>
     <g id="line2d_101">
      <g>
       <use style="stroke:#000000;stroke-width:0.8;" x="453.804688" xlink:href="#m915c4ff09c" y="185.398125"/>
      </g>
     </g>
     <g id="text_53">
      <!-- 20 -->
      <g transform="translate(434.079688 189.197344)scale(0.1 -0.1)">
       <use xlink:href="#DejaVuSans-50"/>
       <use x="63.623047" xlink:href="#DejaVuSans-48"/>
      </g>
     </g>
    </g>
   </g>
   <g id="line2d_102">
    <path clip-path="url(#p63f3ad0530)" d="M 460.145597 109.294125 
L 461.426588 109.053917 
L 462.70758 108.98978 
L 463.988572 109.098086 
L 465.269564 109.375203 
L 466.550555 109.817501 
L 467.831547 110.42135 
L 469.112539 111.183119 
L 470.39353 112.099178 
L 471.674522 113.165897 
L 472.955514 114.379645 
L 474.236506 115.736792 
L 475.517497 117.233707 
L 476.798489 118.866761 
L 478.079481 120.632323 
L 479.360473 122.526762 
L 480.641464 124.546449 
L 481.922456 126.687752 
L 483.203448 128.947042 
L 484.48444 131.320687 
L 485.765431 133.805059 
L 487.046423 136.396526 
L 488.327415 139.091458 
L 489.608407 141.886225 
L 490.889398 144.777196 
L 492.17039 147.760742 
L 493.451382 150.83323 
L 494.732373 153.991033 
L 496.013365 157.230518 
L 497.294357 160.548055 
L 498.575349 163.940015 
L 499.85634 167.402767 
L 501.137332 170.93268 
L 502.418324 174.526125 
L 503.699316 178.17947 
L 504.980307 181.889086 
L 506.261299 185.651342 
L 507.542291 189.462608 
L 508.823283 193.319253 
L 510.104274 197.217647 
L 511.385266 201.15416 
L 512.666258 205.125161 
L 513.947249 209.127021 
L 515.228241 213.156107 
L 516.509233 217.208792 
L 517.790225 221.281443 
L 519.071216 225.370431 
L 520.352208 229.472124 
L 521.6332 233.582894 
L 522.914192 237.69911 
L 524.195183 241.81714 
L 525.476175 245.933356 
L 526.757167 250.044126 
L 528.038159 254.145819 
L 529.31915 258.234807 
L 530.600142 262.307458 
L 531.881134 266.360143 
L 533.162126 270.389229 
L 534.443117 274.391089 
L 535.724109 278.36209 
L 537.005101 282.298603 
L 538.286092 286.196997 
L 539.567084 290.053642 
L 540.848076 293.864908 
L 542.129068 297.627164 
L 543.410059 301.33678 
L 544.691051 304.990125 
L 545.972043 308.58357 
L 547.253035 312.113483 
L 548.534026 315.576235 
L 549.815018 318.968195 
L 549.825851 318.99625 
" style="fill:none;stroke:#000000;stroke-linecap:square;stroke-width:1.5;"/>
   </g>
   <g id="patch_28">
    <path d="M 453.804688 294.118125 
L 453.804688 185.398125 
" style="fill:none;stroke:#000000;stroke-linecap:square;stroke-linejoin:miter;stroke-width:0.8;"/>
   </g>
   <g id="patch_29">
    <path d="M 593.304688 294.118125 
L 593.304688 185.398125 
" style="fill:none;stroke:#000000;stroke-linecap:square;stroke-linejoin:miter;stroke-width:0.8;"/>
   </g>
   <g id="patch_30">
    <path d="M 453.804688 294.118125 
L 593.304688 294.118125 
" style="fill:none;stroke:#000000;stroke-linecap:square;stroke-linejoin:miter;stroke-width:0.8;"/>
   </g>
   <g id="patch_31">
    <path d="M 453.804688 185.398125 
L 593.304688 185.398125 
" style="fill:none;stroke:#000000;stroke-linecap:square;stroke-linejoin:miter;stroke-width:0.8;"/>
   </g>
   <g id="text_54">
    <!-- 6 -->
    <defs>
     <path d="M 33.015625 40.375 
Q 26.375 40.375 22.484375 35.828125 
Q 18.609375 31.296875 18.609375 23.390625 
Q 18.609375 15.53125 22.484375 10.953125 
Q 26.375 6.390625 33.015625 6.390625 
Q 39.65625 6.390625 43.53125 10.953125 
Q 47.40625 15.53125 47.40625 23.390625 
Q 47.40625 31.296875 43.53125 35.828125 
Q 39.65625 40.375 33.015625 40.375 
z
M 52.59375 71.296875 
L 52.59375 62.3125 
Q 48.875 64.0625 45.09375 64.984375 
Q 41.3125 65.921875 37.59375 65.921875 
Q 27.828125 65.921875 22.671875 59.328125 
Q 17.53125 52.734375 16.796875 39.40625 
Q 19.671875 43.65625 24.015625 45.921875 
Q 28.375 48.1875 33.59375 48.1875 
Q 44.578125 48.1875 50.953125 41.515625 
Q 57.328125 34.859375 57.328125 23.390625 
Q 57.328125 12.15625 50.6875 5.359375 
Q 44.046875 -1.421875 33.015625 -1.421875 
Q 20.359375 -1.421875 13.671875 8.265625 
Q 6.984375 17.96875 6.984375 36.375 
Q 6.984375 53.65625 15.1875 63.9375 
Q 23.390625 74.21875 37.203125 74.21875 
Q 40.921875 74.21875 44.703125 73.484375 
Q 48.484375 72.75 52.59375 71.296875 
z
" id="DejaVuSans-54"/>
    </defs>
    <g transform="translate(519.737188 179.398125)scale(0.12 -0.12)">
     <use xlink:href="#DejaVuSans-54"/>
    </g>
   </g>
  </g>
 </g>
 <defs>
  <clipPath id="pdd0363874a">
   <rect height="108.72" width="139.5" x="35.304688" y="22.318125"/>
  </clipPath>
  <clipPath id="p34f36f9dba">
   <rect height="108.72" width="139.5" x="244.554688" y="22.318125"/>
  </clipPath>
  <clipPath id="pb5e437d142">
   <rect height="108.72" width="139.5" x="453.804688" y="22.318125"/>
  </clipPath>
  <clipPath id="pc0e6f42d20">
   <rect height="108.72" width="139.5" x="35.304688" y="185.398125"/>
  </clipPath>
  <clipPath id="p69fdd0eb3d">
   <rect height="108.72" width="139.5" x="244.554688" y="185.398125"/>
  </clipPath>
  <clipPath id="p63f3ad0530">
   <rect height="108.72" width="139.5" x="453.804688" y="185.398125"/>
  </clipPath>
 </defs>
</svg>
